<?xml version="1.0" encoding="UTF-8"?>
<svg xmlns="http://www.w3.org/2000/svg" xmlns:xlink="http://www.w3.org/1999/xlink" width="194pt" height="194pt" viewBox="0 0 194 194" version="1.1">
<g id="surface1">
<path style=" stroke:none;fill-rule:evenodd;fill:rgb(100%,100%,100%);fill-opacity:1;" d="M 0.257813 0.675781 L 193.015625 0.675781 L 193.015625 193.433594 L 0.257813 193.433594 L 0.257813 0.675781 "/>
<path style=" stroke:none;fill-rule:evenodd;fill:rgb(17.999268%,18.798828%,57.299805%);fill-opacity:1;" d="M 42.960938 88.769531 C 42.960938 80.832031 37.265625 75.136719 30.191406 75.136719 C 27.773438 75.136719 25.359375 75.652344 23.289063 77.378906 C 21.390625 75.828125 18.972656 75.136719 16.554688 75.136719 C 9.136719 75.136719 3.09375 81.523438 3.09375 89.632813 C 3.09375 103.960938 16.902344 115.695313 23.289063 118.972656 L 23.289063 110.171875 C 31.226563 107.410156 42.960938 98.089844 42.960938 88.769531 Z M 23.289063 102.058594 L 23.289063 110 C 18.109375 105.683594 11.035156 97.574219 11.035156 89.980469 C 11.035156 86.011719 13.792969 82.730469 17.417969 82.730469 C 20.179688 82.730469 22.425781 84.457031 23.289063 86.871094 C 24.152344 84.457031 26.566406 82.730469 29.15625 82.730469 C 32.605469 82.730469 35.195313 85.664063 35.195313 89.117188 C 35.195313 94.984375 26.910156 100.335938 23.289063 102.058594 "/>
<path style=" stroke:none;fill-rule:evenodd;fill:rgb(17.999268%,18.798828%,57.299805%);fill-opacity:1;" d="M 186.039063 102.234375 L 186.039063 101.023438 L 186.730469 101.023438 C 187.246094 101.023438 187.59375 101.023438 187.59375 101.542969 C 187.59375 102.058594 187.246094 102.234375 186.730469 102.234375 Z M 186.039063 102.75 L 186.558594 102.75 L 187.59375 104.476563 L 188.453125 104.476563 L 187.246094 102.75 C 187.9375 102.578125 188.28125 102.40625 188.28125 101.542969 C 188.28125 100.851563 187.765625 100.507813 186.902344 100.507813 L 185.347656 100.507813 L 185.347656 104.476563 L 186.039063 104.476563 Z M 190.179688 102.40625 C 190.179688 100.160156 188.628906 98.78125 186.730469 98.78125 C 184.832031 98.78125 183.105469 100.160156 183.105469 102.40625 C 183.105469 104.476563 184.65625 106.03125 186.730469 106.03125 C 188.628906 106.03125 190.179688 104.476563 190.179688 102.40625 Z M 189.492188 102.40625 C 189.492188 104.132813 188.28125 105.339844 186.730469 105.339844 C 185.003906 105.339844 183.96875 103.960938 183.96875 102.40625 C 183.96875 100.679688 185.175781 99.472656 186.730469 99.472656 C 188.28125 99.472656 189.492188 100.679688 189.492188 102.40625 "/>
<path style=" stroke:none;fill-rule:evenodd;fill:rgb(17.999268%,18.798828%,57.299805%);fill-opacity:1;" d="M 91.289063 94.292969 C 91.289063 95.328125 91.113281 95.328125 90.941406 95.328125 C 89.90625 95.328125 90.253906 92.222656 87.316406 92.222656 C 86.28125 92.222656 85.074219 92.742188 85.074219 93.949219 C 85.074219 96.882813 92.152344 96.363281 92.152344 101.714844 C 91.976563 105.855469 88.179688 106.546875 86.28125 106.546875 C 84.554688 106.546875 82.3125 106.03125 82.3125 104.820313 C 82.3125 103.09375 82.3125 101.886719 82.832031 101.886719 C 83.519531 101.886719 83.347656 105.339844 86.628906 105.339844 C 88.179688 105.339844 89.390625 104.648438 89.390625 103.269531 C 89.390625 99.472656 82.484375 99.988281 82.484375 95.847656 C 82.484375 92.222656 85.417969 91.1875 88.007813 91.1875 C 89.5625 91.1875 91.289063 92.050781 91.289063 92.222656 L 91.289063 94.292969 "/>
<path style=" stroke:none;fill-rule:evenodd;fill:rgb(17.999268%,18.798828%,57.299805%);fill-opacity:1;" d="M 57.113281 93.949219 C 57.113281 94.640625 57.289063 94.8125 58.324219 94.8125 C 61.257813 94.8125 61.773438 94.292969 62.121094 93.605469 C 62.464844 92.566406 62.464844 91.878906 62.984375 91.878906 C 63.328125 91.878906 63.5 92.050781 63.5 95.847656 C 63.5 98.4375 63.328125 99.125 62.984375 98.953125 C 62.636719 98.953125 62.464844 98.4375 62.292969 97.746094 C 62.121094 97.054688 61.773438 95.847656 59.011719 95.847656 C 57.289063 95.847656 57.113281 96.019531 57.113281 97.054688 L 57.113281 102.578125 C 57.289063 104.476563 57.632813 104.648438 59.359375 104.996094 C 60.222656 105.167969 60.566406 105.339844 60.566406 105.683594 C 60.566406 106.03125 60.050781 106.203125 59.359375 106.203125 C 57.976563 106.203125 52.972656 106.203125 51.59375 106.203125 C 51.246094 106.203125 51.074219 106.03125 51.074219 105.511719 C 51.074219 105.167969 51.417969 104.996094 52.800781 104.996094 C 53.316406 104.996094 53.664063 104.820313 53.664063 103.613281 C 53.664063 98.609375 53.664063 93.429688 53.664063 88.425781 C 53.664063 87.21875 53.492188 87.046875 52.628906 86.871094 C 51.417969 86.871094 51.417969 86.699219 51.417969 86.355469 C 51.417969 85.835938 51.765625 85.664063 52.628906 85.664063 C 54.007813 85.664063 62.636719 85.664063 63.84375 85.664063 C 64.882813 85.664063 65.226563 85.664063 65.226563 87.21875 C 65.226563 90.671875 65.226563 90.671875 64.710938 90.671875 C 64.363281 90.671875 64.363281 89.460938 63.84375 88.769531 C 63.15625 87.046875 60.222656 86.871094 59.1875 86.871094 C 57.460938 87.046875 57.113281 87.046875 57.113281 89.117188 L 57.113281 93.949219 "/>
<path style=" stroke:none;fill-rule:evenodd;fill:rgb(17.999268%,18.798828%,57.299805%);fill-opacity:1;" d="M 97.15625 101.714844 C 97.15625 103.785156 97.671875 104.132813 99.054688 104.132813 C 99.742188 104.132813 100.605469 103.785156 100.78125 103.785156 C 100.953125 103.785156 101.125 103.960938 101.125 104.304688 C 101.125 105.167969 99.398438 106.546875 97.328125 106.546875 C 95.429688 106.546875 94.046875 105.511719 94.046875 102.75 L 94.046875 93.949219 C 94.046875 93.605469 94.046875 93.429688 93.703125 93.429688 C 92.667969 93.429688 92.324219 93.429688 92.324219 92.914063 C 92.324219 92.394531 93.703125 92.050781 94.738281 91.015625 C 95.949219 89.808594 96.464844 88.425781 96.984375 88.425781 C 97.671875 88.425781 96.808594 91.359375 97.847656 91.359375 L 100.433594 91.359375 C 101.125 91.359375 101.296875 91.53125 101.296875 92.222656 C 101.296875 93.085938 100.78125 93.085938 100.605469 93.085938 L 98.019531 93.085938 C 96.984375 93.085938 97.15625 93.605469 97.15625 94.640625 L 97.15625 101.714844 "/>
<path style=" stroke:none;fill-rule:evenodd;fill:rgb(17.999268%,18.798828%,57.299805%);fill-opacity:1;" d="M 79.550781 91.359375 C 77.308594 91.359375 76.789063 92.914063 76.273438 92.914063 C 75.582031 92.914063 76.445313 90.84375 75.582031 90.84375 C 75.238281 90.84375 75.0625 91.53125 73.683594 92.394531 C 72.648438 93.085938 71.785156 93.429688 71.785156 93.949219 C 71.613281 94.984375 72.992188 93.949219 72.992188 96.363281 C 72.992188 96.363281 73.339844 104.304688 72.820313 104.476563 C 72.300781 104.648438 71.957031 105.339844 71.09375 105.339844 C 70.230469 105.339844 69.714844 104.820313 69.714844 104.820313 C 69.367188 104.304688 69.542969 103.960938 69.542969 103.09375 L 69.542969 93.777344 C 69.542969 92.222656 69.542969 91.1875 69.542969 91.015625 C 69.542969 90.84375 69.367188 90.84375 69.195313 90.84375 C 69.023438 90.84375 68.503906 91.703125 67.46875 92.394531 C 65.570313 93.257813 64.710938 92.914063 64.710938 93.605469 C 64.710938 94.984375 66.433594 93.777344 66.433594 95.847656 L 66.433594 103.613281 C 66.433594 104.304688 66.261719 104.648438 65.917969 104.996094 C 65.917969 104.996094 65.570313 105.167969 65.226563 105.167969 C 64.535156 105.339844 64.191406 105.511719 64.191406 105.855469 C 64.191406 106.03125 64.363281 106.203125 64.710938 106.203125 C 65.746094 106.203125 78.171875 106.203125 78.6875 106.203125 C 79.207031 106.203125 79.378906 106.203125 79.378906 105.683594 C 79.550781 104.996094 78 104.996094 78 104.996094 C 76.445313 104.996094 76.097656 104.132813 76.097656 102.921875 L 76.097656 96.539063 C 76.097656 94.984375 76.445313 94.121094 77.136719 94.121094 C 78 94.121094 78.515625 95.675781 79.898438 95.675781 C 81.449219 95.675781 81.792969 94.292969 81.792969 93.777344 C 81.792969 92.394531 80.757813 91.359375 79.550781 91.359375 "/>
<path style=" stroke:none;fill-rule:evenodd;fill:rgb(17.999268%,18.798828%,57.299805%);fill-opacity:1;" d="M 161.011719 101.714844 C 161.011719 103.785156 161.703125 104.132813 162.910156 104.132813 C 163.773438 104.132813 164.464844 103.785156 164.636719 103.785156 C 164.8125 103.785156 164.984375 103.960938 164.984375 104.304688 C 164.984375 105.167969 163.429688 106.546875 161.1875 106.546875 C 159.289063 106.546875 157.90625 105.511719 157.90625 102.75 L 158.078125 93.949219 C 158.078125 93.605469 157.90625 93.429688 157.734375 93.429688 C 156.699219 93.429688 156.179688 93.429688 156.179688 92.914063 C 156.179688 92.394531 157.734375 92.050781 158.769531 91.015625 C 159.804688 89.808594 160.324219 88.425781 160.839844 88.425781 C 161.703125 88.425781 160.667969 91.359375 161.878906 91.359375 L 164.464844 91.359375 C 165.15625 91.359375 165.328125 91.53125 165.328125 92.222656 C 165.15625 93.085938 164.8125 93.085938 164.636719 93.085938 L 162.050781 93.085938 C 161.011719 93.085938 161.011719 93.605469 161.011719 94.640625 L 161.011719 101.714844 "/>
<path style=" stroke:none;fill-rule:evenodd;fill:rgb(17.999268%,18.798828%,57.299805%);fill-opacity:1;" d="M 170.851563 93.429688 L 171.023438 93.605469 C 171.195313 93.605469 172.921875 91.53125 175.339844 91.53125 C 177.925781 91.53125 179.996094 92.742188 179.996094 96.710938 L 179.996094 103.785156 C 179.996094 104.476563 180.34375 104.648438 180.859375 104.996094 C 181.722656 105.339844 181.722656 105.339844 181.722656 105.683594 C 181.722656 106.03125 181.378906 106.203125 180.6875 106.203125 C 180.34375 106.203125 176.546875 106.03125 175.855469 106.03125 C 175.339844 106.03125 174.820313 106.03125 174.820313 105.683594 C 174.820313 105.167969 175.683594 105.167969 176.203125 104.820313 C 176.71875 104.648438 176.890625 103.785156 176.890625 102.234375 C 176.890625 102.234375 176.890625 97.402344 176.890625 96.710938 C 176.890625 96.363281 177.238281 93.777344 173.785156 93.777344 C 172.921875 93.777344 170.851563 94.464844 170.851563 96.363281 L 170.851563 104.132813 C 170.851563 104.648438 171.023438 104.820313 171.367188 104.820313 C 171.886719 105.167969 172.230469 105.167969 172.578125 105.339844 C 172.921875 105.339844 173.265625 105.511719 173.265625 105.683594 C 173.265625 106.03125 172.75 106.203125 172.230469 106.203125 C 171.542969 106.203125 167.226563 106.03125 166.191406 106.203125 C 165.847656 106.203125 165.671875 105.855469 165.671875 105.511719 C 165.847656 105.167969 166.535156 105.167969 166.882813 104.996094 C 167.746094 104.476563 167.746094 104.132813 167.746094 102.40625 L 167.746094 88.078125 C 167.570313 87.046875 166.191406 87.390625 166.191406 86.699219 C 166.191406 86.183594 169.816406 84.628906 170.335938 84.628906 C 170.851563 84.800781 170.851563 85.492188 170.851563 86.183594 L 170.851563 93.429688 "/>
<path style=" stroke:none;fill-rule:evenodd;fill:rgb(17.999268%,18.798828%,57.299805%);fill-opacity:1;" d="M 155.144531 104.820313 C 154.109375 104.476563 153.9375 104.304688 153.9375 103.613281 L 153.9375 85.492188 C 153.9375 84.972656 153.9375 84.628906 153.59375 84.628906 C 153.421875 84.628906 152.210938 85.492188 151.695313 85.664063 C 150.65625 86.183594 149.277344 86.355469 149.277344 87.046875 C 149.277344 87.5625 149.96875 87.734375 150.3125 88.078125 C 150.832031 88.425781 150.832031 88.769531 150.832031 91.1875 L 150.832031 101.714844 C 150.832031 103.269531 150.65625 103.785156 150.3125 104.132813 C 150.140625 104.476563 149.96875 104.476563 149.621094 104.648438 C 149.105469 104.820313 148.761719 104.820313 148.242188 104.648438 C 147.722656 104.476563 147.035156 103.785156 147.035156 102.058594 C 147.035156 101.199219 147.035156 101.199219 147.035156 101.199219 C 147.035156 101.199219 147.035156 96.363281 147.035156 94.292969 C 147.035156 92.394531 146.171875 91.1875 143.238281 91.1875 C 139.441406 91.015625 136.679688 94.640625 136.679688 95.675781 C 136.679688 96.191406 136.851563 96.539063 137.539063 96.710938 C 138.578125 96.710938 139.613281 95.847656 139.785156 94.640625 C 140.128906 92.914063 141.164063 92.566406 142.199219 92.394531 C 143.753906 92.394531 144.273438 93.605469 144.273438 95.328125 C 144.273438 96.191406 144.273438 96.539063 143.582031 96.882813 C 141.511719 98.261719 137.195313 99.296875 137.023438 103.441406 C 136.851563 106.203125 138.578125 106.71875 139.441406 106.546875 C 141.855469 106.546875 143.925781 104.648438 143.925781 104.648438 C 144.273438 104.820313 145.308594 106.203125 146.859375 106.203125 C 148.761719 106.203125 151.347656 106.203125 152.039063 106.203125 C 153.246094 106.203125 156.007813 106.375 156.527344 106.03125 C 156.871094 105.855469 156.355469 105.167969 156.527344 105.339844 C 156.355469 105.167969 156.355469 105.167969 155.144531 104.820313 Z M 141.164063 104.476563 C 140.304688 104.304688 139.785156 103.613281 139.785156 102.578125 C 139.785156 99.816406 143.238281 98.261719 143.582031 98.261719 C 144.101563 98.089844 144.101563 98.609375 144.101563 99.988281 C 144.273438 103.269531 143.582031 104.820313 141.164063 104.476563 "/>
<path style=" stroke:none;fill-rule:evenodd;fill:rgb(17.999268%,18.798828%,57.299805%);fill-opacity:1;" d="M 130.636719 92.222656 C 132.535156 92.222656 132.882813 93.777344 132.882813 94.292969 C 132.882813 96.191406 132.363281 96.710938 128.222656 96.539063 C 127.53125 96.539063 127.1875 96.539063 127.1875 96.019531 C 127.1875 94.640625 128.566406 92.222656 130.636719 92.222656 Z M 135.296875 97.917969 C 135.816406 97.917969 135.816406 97.574219 135.816406 97.226563 C 135.816406 94.984375 134.433594 91.1875 130.292969 91.1875 C 127.1875 91.015625 123.734375 94.464844 123.734375 99.125 C 123.734375 103.269531 126.496094 106.546875 129.945313 106.546875 C 133.746094 106.546875 135.46875 103.613281 135.46875 103.09375 C 135.46875 102.75 135.46875 102.578125 135.125 102.578125 C 134.433594 102.75 133.226563 104.304688 131.15625 104.132813 C 129.257813 104.132813 127.015625 102.234375 127.015625 99.125 C 127.015625 97.574219 127.878906 97.917969 128.222656 97.917969 L 135.296875 97.917969 "/>
<path style=" stroke:none;fill-rule:evenodd;fill:rgb(17.999268%,18.798828%,57.299805%);fill-opacity:1;" d="M 117.003906 106.203125 C 116.65625 106.203125 116.3125 106.03125 116.3125 105.683594 C 116.3125 105.339844 116.832031 105.167969 117.867188 104.996094 C 118.382813 104.820313 118.730469 104.304688 118.730469 103.09375 C 118.730469 103.09375 118.730469 99.988281 118.730469 97.917969 C 118.730469 97.226563 118.730469 96.363281 117.867188 96.363281 L 112.171875 96.363281 C 111.652344 96.363281 111.136719 96.363281 111.136719 97.402344 L 111.136719 103.09375 C 111.136719 104.304688 111.652344 104.820313 111.996094 104.996094 C 113.207031 105.167969 113.550781 105.339844 113.550781 105.683594 C 113.550781 106.03125 113.378906 106.203125 113.035156 106.203125 C 112.515625 106.203125 106.992188 106.203125 105.957031 106.203125 C 105.613281 106.203125 105.441406 106.03125 105.441406 105.683594 C 105.441406 105.511719 105.785156 105.339844 106.992188 104.996094 C 107.511719 104.820313 108.027344 104.648438 108.027344 103.613281 L 108.027344 88.425781 C 108.027344 87.5625 107.855469 86.871094 106.992188 86.871094 C 106.128906 86.871094 105.613281 86.699219 105.613281 86.183594 C 105.613281 85.835938 106.128906 85.664063 106.476563 85.664063 C 107.164063 85.664063 111.480469 85.664063 112.515625 85.664063 C 112.859375 85.664063 113.378906 85.664063 113.378906 86.355469 C 113.378906 86.699219 113.035156 86.871094 112.171875 86.871094 C 111.308594 87.046875 111.136719 87.390625 111.136719 88.253906 L 111.136719 93.949219 C 111.136719 94.464844 111.136719 94.984375 111.824219 94.984375 L 118.039063 94.984375 C 118.730469 94.984375 118.730469 94.464844 118.730469 93.949219 L 118.730469 87.734375 C 118.730469 87.046875 118.039063 86.871094 117.695313 86.871094 C 117.003906 86.871094 116.484375 86.699219 116.484375 86.355469 C 116.484375 85.835938 117.003906 85.664063 117.519531 85.664063 C 118.210938 85.664063 122.527344 85.664063 123.390625 85.664063 C 124.078125 85.664063 124.253906 85.835938 124.253906 86.183594 C 124.253906 87.046875 123.214844 86.871094 122.527344 87.046875 C 122.355469 87.21875 122.007813 87.390625 122.007813 88.597656 L 122.007813 103.09375 C 122.007813 104.304688 122.179688 104.820313 123.214844 104.996094 C 123.90625 105.167969 124.253906 105.167969 124.253906 105.683594 C 124.253906 106.03125 124.078125 106.203125 123.5625 106.203125 C 122.871094 106.203125 117.347656 106.203125 117.003906 106.203125 "/>
</g>
</svg>
