<?xml version="1.0" encoding="UTF-8"?>
<svg xmlns="http://www.w3.org/2000/svg" xmlns:xlink="http://www.w3.org/1999/xlink" width="194pt" height="194pt" viewBox="0 0 194 194" version="1.1">
<g id="surface1">
<path style=" stroke:none;fill-rule:evenodd;fill:rgb(100%,100%,100%);fill-opacity:1;" d="M 0.257813 0.675781 L 193.015625 0.675781 L 193.015625 193.433594 L 0.257813 193.433594 L 0.257813 0.675781 "/>
<path style=" stroke:none;fill-rule:evenodd;fill:rgb(13.699341%,12.199402%,12.5%);fill-opacity:1;" d="M 58.261719 88.078125 L 56.300781 88.078125 L 56.300781 87.808594 L 62.273438 87.808594 L 62.273438 88.078125 L 60.402344 88.078125 L 60.402344 102.335938 L 62.273438 102.335938 L 62.273438 102.695313 L 56.300781 102.695313 L 56.300781 102.335938 L 58.261719 102.335938 L 58.261719 88.078125 "/>
<path style=" stroke:none;fill-rule:evenodd;fill:rgb(13.699341%,12.199402%,12.5%);fill-opacity:1;" d="M 67.175781 94.316406 L 65.570313 94.316406 L 65.570313 93.960938 L 67.175781 93.960938 C 68.242188 93.960938 68.601563 93.960938 68.957031 93.515625 L 68.957031 95.652344 L 69.046875 95.652344 C 69.582031 94.671875 70.652344 93.515625 72.164063 93.515625 C 74.480469 93.515625 75.105469 94.671875 75.105469 95.917969 L 75.105469 102.335938 L 76.800781 102.335938 L 76.800781 102.695313 L 71.628906 102.695313 L 71.628906 102.335938 L 73.324219 102.335938 L 73.324219 95.386719 C 73.324219 94.226563 72.699219 93.871094 72.078125 93.871094 C 70.292969 93.871094 69.402344 95.652344 68.957031 96.367188 L 68.957031 102.335938 L 70.5625 102.335938 L 70.5625 102.695313 L 65.570313 102.695313 L 65.570313 102.335938 L 67.175781 102.335938 L 67.175781 94.316406 "/>
<path style=" stroke:none;fill-rule:evenodd;fill:rgb(13.699341%,12.199402%,12.5%);fill-opacity:1;" d="M 81.167969 94.316406 L 79.382813 94.316406 L 79.382813 93.960938 C 81.523438 94.046875 82.324219 93.066406 82.679688 91.019531 L 82.949219 91.019531 L 82.949219 93.960938 L 85.890625 93.960938 L 85.890625 94.316406 L 82.949219 94.316406 L 82.949219 101.445313 C 82.949219 102.335938 83.304688 102.605469 84.019531 102.605469 C 85.089844 102.605469 85.535156 101.625 85.710938 101.265625 L 85.980469 101.265625 C 85.800781 101.800781 85.265625 102.960938 83.660156 102.960938 C 82.148438 102.960938 81.167969 102.425781 81.167969 101 L 81.167969 94.316406 "/>
<path style=" stroke:none;fill-rule:evenodd;fill:rgb(13.699341%,12.199402%,12.5%);fill-opacity:1;" d="M 91.148438 99.394531 C 91.148438 100.910156 91.328125 102.605469 93.285156 102.605469 C 95.070313 102.605469 96.40625 101.355469 96.675781 99.664063 L 97.03125 99.664063 C 96.675781 101.625 95.246094 102.960938 93.285156 102.960938 C 90.882813 102.960938 89.097656 101 89.097656 98.238281 C 89.097656 96.1875 90.792969 93.515625 93.109375 93.515625 C 95.605469 93.515625 96.851563 96.277344 96.851563 97.167969 C 96.851563 97.347656 96.761719 97.433594 96.675781 97.433594 L 91.148438 97.433594 Z M 94.800781 96.453125 C 94.800781 95.117188 94.445313 93.871094 93.109375 93.871094 C 91.59375 93.871094 91.148438 95.117188 91.148438 96.453125 L 91.148438 97.078125 L 94.714844 97.078125 C 94.800781 97.078125 94.800781 96.988281 94.800781 96.902344 L 94.800781 96.453125 "/>
<path style=" stroke:none;fill-rule:evenodd;fill:rgb(13.699341%,12.199402%,12.5%);fill-opacity:1;" d="M 101.84375 94.316406 L 100.0625 94.316406 L 100.0625 93.960938 L 101.84375 93.960938 C 102.554688 93.960938 103.269531 93.960938 103.625 93.515625 L 103.625 96.007813 L 103.714844 96.007813 C 103.980469 95.027344 104.695313 93.515625 106.386719 93.515625 C 107.191406 93.515625 107.8125 94.046875 107.8125 94.761719 C 107.8125 95.296875 107.457031 95.742188 106.835938 95.742188 C 106.121094 95.742188 105.941406 95.386719 105.941406 94.851563 C 105.941406 94.40625 106.121094 94.046875 106.386719 93.960938 C 106.300781 93.871094 106.210938 93.871094 106.121094 93.871094 C 105.230469 93.871094 103.625 95.207031 103.625 97.96875 L 103.625 102.335938 L 105.585938 102.335938 L 105.585938 102.695313 L 100.0625 102.695313 L 100.0625 102.335938 L 101.84375 102.335938 L 101.84375 94.316406 "/>
<path style=" stroke:none;fill-rule:evenodd;fill:rgb(13.699341%,12.199402%,12.5%);fill-opacity:1;" d="M 112.09375 94.316406 L 110.488281 94.316406 L 110.488281 93.960938 L 112.09375 93.960938 C 113.160156 93.960938 113.519531 93.960938 113.875 93.515625 L 113.875 95.652344 L 113.964844 95.652344 C 114.496094 94.671875 115.566406 93.515625 117.082031 93.515625 C 119.398438 93.515625 120.023438 94.671875 120.023438 95.917969 L 120.023438 102.335938 L 121.628906 102.335938 L 121.628906 102.695313 L 116.546875 102.695313 L 116.546875 102.335938 L 118.242188 102.335938 L 118.242188 95.386719 C 118.242188 94.226563 117.617188 93.871094 116.992188 93.871094 C 115.210938 93.871094 114.320313 95.652344 113.875 96.367188 L 113.875 102.335938 L 115.480469 102.335938 L 115.480469 102.695313 L 110.488281 102.695313 L 110.488281 102.335938 L 112.09375 102.335938 L 112.09375 94.316406 "/>
<path style=" stroke:none;fill-rule:evenodd;fill:rgb(13.699341%,12.199402%,12.5%);fill-opacity:1;" d="M 126.707031 99.394531 C 126.617188 100.910156 126.886719 102.605469 128.847656 102.605469 C 130.628906 102.605469 131.964844 101.355469 132.234375 99.664063 L 132.589844 99.664063 C 132.234375 101.625 130.808594 102.960938 128.847656 102.960938 C 126.351563 102.960938 124.65625 101 124.65625 98.238281 C 124.65625 96.1875 126.261719 93.515625 128.578125 93.515625 C 131.074219 93.515625 132.410156 96.277344 132.410156 97.167969 C 132.410156 97.347656 132.324219 97.433594 132.234375 97.433594 L 126.707031 97.433594 Z M 130.363281 96.453125 C 130.363281 95.117188 130.007813 93.871094 128.578125 93.871094 C 127.152344 93.871094 126.707031 95.117188 126.707031 96.453125 L 126.707031 97.078125 L 130.183594 97.078125 C 130.363281 97.078125 130.363281 96.988281 130.363281 96.902344 L 130.363281 96.453125 "/>
<path style=" stroke:none;fill-rule:evenodd;fill:rgb(13.699341%,12.199402%,12.5%);fill-opacity:1;" d="M 137.402344 94.316406 L 135.710938 94.316406 L 135.710938 93.960938 L 137.402344 93.960938 C 138.117188 93.960938 138.738281 93.960938 139.183594 93.515625 L 139.183594 101.089844 C 139.183594 101.980469 139.71875 102.605469 140.523438 102.605469 C 141.949219 102.605469 143.285156 100.910156 143.285156 99.308594 L 143.285156 94.316406 L 141.59375 94.316406 L 141.59375 93.960938 L 143.285156 93.960938 C 143.996094 93.960938 144.621094 93.960938 145.066406 93.515625 L 145.066406 102.335938 L 146.761719 102.335938 L 146.761719 102.695313 L 143.285156 102.695313 L 143.285156 100.734375 C 143.019531 101.265625 142.125 102.960938 140.253906 102.960938 C 138.203125 102.960938 137.402344 101.800781 137.402344 100.554688 L 137.402344 94.316406 "/>
<path style=" stroke:none;fill-rule:evenodd;fill:rgb(13.699341%,12.199402%,12.5%);fill-opacity:1;" d="M 151.394531 94.316406 L 149.703125 94.316406 L 149.703125 93.960938 L 151.394531 93.960938 C 152.109375 93.960938 152.820313 93.960938 153.175781 93.515625 L 153.175781 96.007813 L 153.265625 96.007813 C 153.535156 95.027344 154.246094 93.515625 156.027344 93.515625 C 156.742188 93.515625 157.367188 94.046875 157.367188 94.761719 C 157.367188 95.296875 157.007813 95.742188 156.386719 95.742188 C 155.671875 95.742188 155.496094 95.386719 155.496094 94.851563 C 155.496094 94.40625 155.671875 94.046875 155.941406 93.960938 C 155.851563 93.871094 155.761719 93.871094 155.671875 93.871094 C 154.78125 93.871094 153.175781 95.207031 153.175781 97.96875 L 153.175781 102.335938 L 155.136719 102.335938 L 155.136719 102.695313 L 149.703125 102.695313 L 149.703125 102.335938 L 151.394531 102.335938 L 151.394531 94.316406 "/>
<path style=" stroke:none;fill-rule:evenodd;fill:rgb(13.699341%,12.199402%,12.5%);fill-opacity:1;" d="M 164.851563 93.515625 C 167.527344 93.515625 169.308594 95.832031 169.308594 98.238281 C 169.308594 100.644531 167.527344 102.960938 164.851563 102.960938 C 162.089844 102.960938 160.308594 100.644531 160.308594 98.238281 C 160.308594 95.832031 162.089844 93.515625 164.851563 93.515625 Z M 167.257813 97.433594 C 167.257813 95.5625 167.167969 93.871094 164.851563 93.871094 C 162.445313 93.871094 162.355469 95.5625 162.355469 97.433594 L 162.355469 99.039063 C 162.355469 100.910156 162.445313 102.605469 164.851563 102.605469 C 167.167969 102.605469 167.257813 100.910156 167.257813 99.039063 L 167.257813 97.433594 "/>
<path style=" stroke:none;fill-rule:evenodd;fill:rgb(13.699341%,12.199402%,12.5%);fill-opacity:1;" d="M 174.210938 94.316406 L 172.515625 94.316406 L 172.515625 93.960938 L 174.210938 93.960938 C 175.191406 93.960938 175.546875 93.960938 175.992188 93.515625 L 175.992188 95.652344 C 176.527344 94.671875 177.597656 93.515625 179.113281 93.515625 C 181.429688 93.515625 182.054688 94.671875 182.054688 95.917969 L 182.054688 102.335938 L 183.746094 102.335938 L 183.746094 102.695313 L 178.578125 102.695313 L 178.578125 102.335938 L 180.269531 102.335938 L 180.269531 95.386719 C 180.269531 94.226563 179.734375 93.871094 179.023438 93.871094 C 177.238281 93.871094 176.347656 95.652344 175.992188 96.367188 L 175.992188 102.335938 L 177.597656 102.335938 L 177.597656 102.695313 L 172.515625 102.695313 L 172.515625 102.335938 L 174.210938 102.335938 L 174.210938 94.316406 "/>
<path style=" stroke:none;fill-rule:evenodd;fill:rgb(13.699341%,12.199402%,12.5%);fill-opacity:1;" d="M 57.816406 105.546875 L 57.015625 105.546875 L 57.015625 105.367188 L 59.332031 105.367188 C 60.578125 105.367188 61.558594 105.8125 61.558594 107.058594 C 61.558594 108.21875 60.488281 108.664063 59.421875 108.664063 C 59.152344 108.664063 58.796875 108.574219 58.707031 108.484375 L 58.707031 111.160156 L 59.511719 111.160156 L 59.511719 111.25 L 57.015625 111.25 L 57.015625 111.160156 L 57.816406 111.160156 Z M 58.707031 108.308594 C 58.796875 108.398438 59.066406 108.484375 59.332031 108.484375 C 59.867188 108.484375 60.667969 108.21875 60.667969 107.058594 C 60.667969 105.992188 60.132813 105.546875 59.152344 105.546875 L 58.707031 105.546875 L 58.707031 108.308594 "/>
<path style=" stroke:none;fill-rule:evenodd;fill:rgb(13.699341%,12.199402%,12.5%);fill-opacity:1;" d="M 64.144531 105.457031 L 63.519531 105.457031 L 63.519531 105.367188 L 64.144531 105.367188 C 64.410156 105.367188 64.679688 105.277344 64.855469 105.097656 L 64.855469 108.484375 C 65.035156 108.128906 65.480469 107.683594 66.105469 107.683594 C 66.996094 107.683594 67.265625 108.128906 67.265625 108.574219 L 67.265625 111.160156 L 67.886719 111.160156 L 67.886719 111.25 L 65.925781 111.25 L 65.925781 111.160156 L 66.550781 111.160156 L 66.550781 108.398438 C 66.550781 107.949219 66.285156 107.773438 66.015625 107.773438 C 65.390625 107.773438 65.035156 108.484375 64.855469 108.753906 L 64.855469 111.160156 L 65.480469 111.160156 L 65.480469 111.25 L 63.519531 111.25 L 63.519531 111.160156 L 64.144531 111.160156 L 64.144531 105.457031 "/>
<path style=" stroke:none;fill-rule:evenodd;fill:rgb(13.699341%,12.199402%,12.5%);fill-opacity:1;" d="M 72.96875 110.804688 C 72.96875 110.980469 73.054688 111.160156 73.234375 111.160156 C 73.414063 111.160156 73.589844 110.980469 73.679688 110.894531 L 73.769531 110.894531 C 73.589844 111.160156 73.414063 111.339844 73.054688 111.339844 C 72.699219 111.339844 72.34375 111.160156 72.34375 110.894531 C 71.988281 111.25 71.628906 111.339844 71.097656 111.339844 C 70.472656 111.339844 70.027344 111.070313 70.027344 110.445313 C 70.027344 109.554688 71.273438 109.289063 72.164063 109.289063 L 72.34375 109.289063 L 72.34375 108.308594 C 72.34375 107.863281 71.898438 107.773438 71.628906 107.773438 C 71.363281 107.773438 70.828125 107.863281 70.828125 108.21875 C 70.828125 108.398438 71.097656 108.308594 71.097656 108.664063 C 71.097656 108.84375 70.917969 109.019531 70.738281 109.019531 C 70.472656 109.019531 70.292969 108.84375 70.292969 108.574219 C 70.292969 108.128906 70.828125 107.683594 71.628906 107.683594 C 72.253906 107.683594 72.96875 107.949219 72.96875 108.664063 Z M 72.164063 109.464844 C 71.542969 109.464844 70.828125 109.464844 70.828125 110.355469 C 70.828125 110.804688 70.828125 111.160156 71.363281 111.160156 C 71.988281 111.160156 72.34375 110.714844 72.34375 110.535156 L 72.34375 109.464844 L 72.164063 109.464844 "/>
<path style=" stroke:none;fill-rule:evenodd;fill:rgb(13.699341%,12.199402%,12.5%);fill-opacity:1;" d="M 76.355469 107.949219 L 75.640625 107.949219 L 75.640625 107.863281 L 76.355469 107.863281 C 76.621094 107.863281 76.890625 107.863281 77.066406 107.683594 L 77.066406 108.664063 C 77.15625 108.308594 77.421875 107.683594 78.136719 107.683594 C 78.492188 107.683594 78.671875 107.863281 78.671875 108.128906 C 78.671875 108.398438 78.582031 108.574219 78.316406 108.574219 C 78.046875 108.574219 77.957031 108.398438 77.957031 108.21875 C 77.957031 107.949219 78.046875 107.863281 78.136719 107.863281 C 78.136719 107.773438 78.046875 107.773438 78.046875 107.773438 C 77.691406 107.773438 77.066406 108.308594 77.066406 109.378906 L 77.066406 111.160156 L 77.78125 111.160156 L 77.78125 111.25 L 75.640625 111.25 L 75.640625 111.160156 L 76.355469 111.160156 L 76.355469 107.949219 "/>
<path style=" stroke:none;fill-rule:evenodd;fill:rgb(13.699341%,12.199402%,12.5%);fill-opacity:1;" d="M 80.632813 111.160156 L 81.257813 111.160156 L 81.257813 107.949219 L 80.632813 107.949219 L 80.632813 107.863281 L 81.257813 107.863281 C 81.703125 107.863281 81.789063 107.863281 81.96875 107.683594 L 81.96875 108.484375 C 82.234375 108.039063 82.59375 107.683594 83.21875 107.683594 C 83.75 107.683594 84.285156 107.773438 84.375 108.574219 C 84.554688 108.039063 84.910156 107.683594 85.535156 107.683594 C 86.425781 107.683594 86.691406 108.128906 86.691406 108.664063 L 86.691406 111.160156 L 87.40625 111.160156 L 87.40625 111.25 L 85.355469 111.25 L 85.355469 111.160156 L 85.980469 111.160156 L 85.980469 108.484375 C 85.980469 107.949219 85.710938 107.773438 85.445313 107.773438 C 84.910156 107.773438 84.464844 108.308594 84.375 108.929688 L 84.375 111.160156 L 85 111.160156 L 85 111.25 L 82.949219 111.25 L 82.949219 111.160156 L 83.660156 111.160156 L 83.660156 108.398438 C 83.660156 107.949219 83.394531 107.773438 83.128906 107.773438 C 82.59375 107.773438 82.234375 108.21875 81.96875 108.753906 L 81.96875 111.160156 L 82.59375 111.160156 L 82.59375 111.25 L 80.632813 111.25 L 80.632813 111.160156 "/>
<path style=" stroke:none;fill-rule:evenodd;fill:rgb(13.699341%,12.199402%,12.5%);fill-opacity:1;" d="M 92.394531 110.804688 C 92.394531 110.980469 92.394531 111.160156 92.664063 111.160156 C 92.84375 111.160156 92.929688 110.980469 93.019531 110.894531 L 93.109375 110.894531 C 93.019531 111.160156 92.753906 111.339844 92.394531 111.339844 C 92.039063 111.339844 91.773438 111.160156 91.683594 110.894531 C 91.414063 111.25 90.96875 111.339844 90.433594 111.339844 C 89.8125 111.339844 89.367188 111.070313 89.367188 110.445313 C 89.367188 109.554688 90.613281 109.289063 91.503906 109.289063 L 91.683594 109.289063 L 91.683594 108.308594 C 91.683594 107.863281 91.328125 107.773438 90.96875 107.773438 C 90.703125 107.773438 90.167969 107.863281 90.167969 108.21875 C 90.167969 108.398438 90.433594 108.308594 90.433594 108.664063 C 90.433594 108.84375 90.257813 109.019531 90.078125 109.019531 C 89.8125 109.019531 89.722656 108.84375 89.722656 108.574219 C 89.722656 108.128906 90.167969 107.683594 90.96875 107.683594 C 91.59375 107.683594 92.394531 107.949219 92.394531 108.664063 Z M 91.503906 109.464844 C 90.882813 109.464844 90.167969 109.464844 90.167969 110.355469 C 90.167969 110.804688 90.257813 111.160156 90.792969 111.160156 C 91.414063 111.160156 91.683594 110.714844 91.683594 110.535156 L 91.683594 109.464844 L 91.503906 109.464844 "/>
<path style=" stroke:none;fill-rule:evenodd;fill:rgb(13.699341%,12.199402%,12.5%);fill-opacity:1;" d="M 98.277344 110.089844 C 98.277344 110.714844 97.742188 111.339844 96.941406 111.339844 C 95.871094 111.339844 95.160156 110.625 95.160156 109.644531 C 95.160156 108.574219 95.960938 107.683594 96.941406 107.683594 C 97.566406 107.683594 98.1875 107.949219 98.1875 108.398438 C 98.1875 108.664063 98.011719 108.84375 97.742188 108.84375 C 97.476563 108.84375 97.386719 108.664063 97.386719 108.484375 C 97.386719 108.128906 97.566406 108.21875 97.566406 108.039063 C 97.566406 107.863281 97.207031 107.773438 96.941406 107.773438 C 96.140625 107.773438 95.960938 108.308594 95.960938 109.109375 L 95.960938 109.824219 C 95.960938 110.535156 95.960938 111.25 96.941406 111.25 C 97.742188 111.25 98.101563 110.625 98.1875 110.089844 L 98.277344 110.089844 "/>
<path style=" stroke:none;fill-rule:evenodd;fill:rgb(13.699341%,12.199402%,12.5%);fill-opacity:1;" d="M 101.308594 110 C 101.308594 110.535156 101.398438 111.25 102.199219 111.25 C 102.914063 111.25 103.359375 110.804688 103.535156 110.089844 L 103.625 110.089844 C 103.535156 110.894531 102.914063 111.339844 102.199219 111.339844 C 101.21875 111.339844 100.507813 110.625 100.507813 109.554688 C 100.507813 108.664063 101.128906 107.683594 102.109375 107.683594 C 103.089844 107.683594 103.535156 108.753906 103.535156 109.109375 C 103.535156 109.199219 103.535156 109.199219 103.535156 109.199219 L 101.308594 109.199219 Z M 102.734375 108.84375 C 102.734375 108.308594 102.644531 107.773438 102.109375 107.773438 C 101.484375 107.773438 101.308594 108.308594 101.308594 108.84375 L 101.308594 109.019531 L 102.734375 109.019531 L 102.734375 108.84375 "/>
<path style=" stroke:none;fill-rule:evenodd;fill:rgb(13.699341%,12.199402%,12.5%);fill-opacity:1;" d="M 106.300781 107.949219 L 105.675781 107.949219 L 105.675781 107.863281 L 106.300781 107.863281 C 106.566406 107.863281 106.835938 107.863281 107.011719 107.683594 L 107.011719 110.625 C 107.011719 110.980469 107.191406 111.25 107.546875 111.25 C 108.082031 111.25 108.617188 110.535156 108.617188 110 L 108.617188 107.949219 L 107.992188 107.949219 L 107.992188 107.863281 L 108.617188 107.863281 C 108.882813 107.863281 109.152344 107.863281 109.328125 107.683594 L 109.328125 111.160156 L 110.042969 111.160156 L 110.042969 111.25 L 108.617188 111.25 L 108.617188 110.535156 C 108.527344 110.714844 108.171875 111.339844 107.457031 111.339844 C 106.566406 111.339844 106.300781 110.894531 106.300781 110.445313 L 106.300781 107.949219 "/>
<path style=" stroke:none;fill-rule:evenodd;fill:rgb(13.699341%,12.199402%,12.5%);fill-opacity:1;" d="M 112.539063 107.949219 L 111.824219 107.949219 L 111.824219 107.863281 C 112.714844 107.863281 112.984375 107.507813 113.160156 106.703125 L 113.25 106.703125 L 113.25 107.863281 L 114.410156 107.863281 L 114.410156 107.949219 L 113.25 107.949219 L 113.25 110.804688 C 113.25 111.160156 113.429688 111.25 113.695313 111.25 C 114.054688 111.25 114.230469 110.894531 114.320313 110.714844 L 114.410156 110.714844 C 114.410156 110.894531 114.140625 111.339844 113.519531 111.339844 C 112.894531 111.339844 112.539063 111.160156 112.539063 110.625 L 112.539063 107.949219 "/>
<path style=" stroke:none;fill-rule:evenodd;fill:rgb(13.699341%,12.199402%,12.5%);fill-opacity:1;" d="M 116.992188 107.949219 L 116.371094 107.949219 L 116.371094 107.863281 L 116.992188 107.863281 C 117.261719 107.863281 117.527344 107.863281 117.707031 107.683594 L 117.707031 111.160156 L 118.421875 111.160156 L 118.421875 111.25 L 116.371094 111.25 L 116.371094 111.160156 L 116.992188 111.160156 Z M 117.351563 105.722656 C 117.617188 105.722656 117.796875 105.902344 117.796875 106.167969 C 117.796875 106.347656 117.617188 106.613281 117.351563 106.613281 C 117.171875 106.613281 116.992188 106.347656 116.992188 106.167969 C 116.992188 105.902344 117.171875 105.722656 117.351563 105.722656 "/>
<path style=" stroke:none;fill-rule:evenodd;fill:rgb(13.699341%,12.199402%,12.5%);fill-opacity:1;" d="M 123.679688 110.089844 C 123.679688 110.714844 123.144531 111.339844 122.339844 111.339844 C 121.269531 111.339844 120.558594 110.625 120.558594 109.644531 C 120.558594 108.574219 121.359375 107.683594 122.339844 107.683594 C 122.964844 107.683594 123.589844 107.949219 123.589844 108.398438 C 123.589844 108.664063 123.320313 108.84375 123.144531 108.84375 C 122.875 108.84375 122.785156 108.664063 122.785156 108.484375 C 122.785156 108.128906 122.964844 108.21875 122.964844 108.039063 C 122.964844 107.863281 122.609375 107.773438 122.339844 107.773438 C 121.539063 107.773438 121.359375 108.308594 121.359375 109.109375 L 121.359375 109.824219 C 121.359375 110.535156 121.359375 111.25 122.339844 111.25 C 123.144531 111.25 123.5 110.625 123.589844 110.089844 L 123.679688 110.089844 "/>
<path style=" stroke:none;fill-rule:evenodd;fill:rgb(13.699341%,12.199402%,12.5%);fill-opacity:1;" d="M 128.9375 110.804688 C 128.9375 110.980469 128.9375 111.160156 129.203125 111.160156 C 129.382813 111.160156 129.472656 110.980469 129.558594 110.894531 L 129.648438 110.894531 C 129.558594 111.160156 129.292969 111.339844 128.9375 111.339844 C 128.578125 111.339844 128.3125 111.160156 128.222656 110.894531 C 127.957031 111.25 127.511719 111.339844 126.976563 111.339844 C 126.351563 111.339844 125.90625 111.070313 125.90625 110.445313 C 125.90625 109.554688 127.152344 109.289063 128.046875 109.289063 L 128.222656 109.289063 L 128.222656 108.308594 C 128.222656 107.863281 127.867188 107.773438 127.511719 107.773438 C 127.242188 107.773438 126.707031 107.863281 126.707031 108.21875 C 126.707031 108.398438 126.976563 108.308594 126.976563 108.664063 C 126.976563 108.84375 126.796875 109.019531 126.617188 109.019531 C 126.351563 109.019531 126.261719 108.84375 126.261719 108.574219 C 126.261719 108.128906 126.707031 107.683594 127.511719 107.683594 C 128.132813 107.683594 128.9375 107.949219 128.9375 108.664063 Z M 128.046875 109.464844 C 127.421875 109.464844 126.707031 109.464844 126.707031 110.355469 C 126.707031 110.804688 126.796875 111.160156 127.332031 111.160156 C 127.957031 111.160156 128.222656 110.714844 128.222656 110.535156 L 128.222656 109.464844 L 128.046875 109.464844 "/>
<path style=" stroke:none;fill-rule:evenodd;fill:rgb(13.699341%,12.199402%,12.5%);fill-opacity:1;" d="M 132.054688 105.457031 L 131.34375 105.457031 L 131.34375 105.367188 L 132.054688 105.367188 C 132.324219 105.367188 132.589844 105.277344 132.769531 105.097656 L 132.769531 111.160156 L 133.394531 111.160156 L 133.394531 111.25 L 131.34375 111.25 L 131.34375 111.160156 L 132.054688 111.160156 L 132.054688 105.457031 "/>
<path style=" stroke:none;fill-rule:evenodd;fill:rgb(13.699341%,12.199402%,12.5%);fill-opacity:1;" d="M 135.53125 110.089844 L 135.621094 110.089844 C 135.710938 110.445313 135.976563 111.25 136.867188 111.25 C 137.3125 111.25 137.671875 110.894531 137.671875 110.445313 C 137.671875 109.824219 137.136719 109.824219 136.691406 109.734375 C 136.15625 109.644531 135.621094 109.644531 135.621094 108.753906 C 135.621094 108.128906 135.976563 107.683594 136.691406 107.683594 C 137.136719 107.683594 137.402344 107.949219 137.492188 107.949219 C 137.582031 107.949219 137.582031 107.863281 137.582031 107.773438 L 137.582031 107.683594 L 137.671875 107.683594 L 137.757813 108.664063 L 137.582031 108.664063 C 137.582031 108.21875 137.3125 107.773438 136.601563 107.773438 C 136.242188 107.773438 135.886719 108.039063 135.886719 108.484375 C 135.886719 108.929688 136.15625 109.019531 136.777344 109.109375 L 137.046875 109.109375 C 137.671875 109.109375 138.027344 109.464844 138.027344 110.089844 C 138.027344 110.894531 137.492188 111.339844 136.867188 111.339844 C 136.15625 111.339844 135.976563 110.980469 135.796875 110.980469 C 135.710938 110.980469 135.710938 111.160156 135.710938 111.339844 L 135.53125 111.339844 L 135.53125 110.089844 "/>
<path style=" stroke:none;fill-rule:evenodd;fill:rgb(13.699341%,12.199402%,12.5%);fill-opacity:1;" d="M 139.808594 112.851563 C 140.34375 112.40625 140.609375 112.050781 140.609375 111.425781 C 140.609375 111.070313 140.523438 110.714844 140.078125 110.625 C 140.164063 110.714844 140.253906 110.894531 140.253906 110.980469 C 140.253906 111.25 140.078125 111.339844 139.808594 111.339844 C 139.632813 111.339844 139.453125 111.160156 139.453125 110.980469 C 139.453125 110.714844 139.632813 110.535156 139.988281 110.535156 C 140.523438 110.535156 140.699219 110.980469 140.699219 111.425781 C 140.699219 112.050781 140.433594 112.496094 139.898438 112.941406 L 139.808594 112.851563 "/>
<path style=" stroke:none;fill-rule:evenodd;fill:rgb(13.699341%,12.199402%,12.5%);fill-opacity:1;" d="M 145.511719 105.546875 L 144.710938 105.546875 L 144.710938 105.367188 L 147.117188 105.367188 L 147.117188 105.546875 L 146.402344 105.546875 L 146.402344 111.160156 L 147.117188 111.160156 L 147.117188 111.25 L 144.710938 111.25 L 144.710938 111.160156 L 145.511719 111.160156 L 145.511719 105.546875 "/>
<path style=" stroke:none;fill-rule:evenodd;fill:rgb(13.699341%,12.199402%,12.5%);fill-opacity:1;" d="M 149.703125 107.949219 L 149.078125 107.949219 L 149.078125 107.863281 L 149.703125 107.863281 C 150.148438 107.863281 150.238281 107.863281 150.414063 107.683594 L 150.414063 108.484375 C 150.683594 108.128906 151.039063 107.683594 151.660156 107.683594 C 152.554688 107.683594 152.820313 108.128906 152.820313 108.574219 L 152.820313 111.160156 L 153.535156 111.160156 L 153.535156 111.25 L 151.484375 111.25 L 151.484375 111.160156 L 152.109375 111.160156 L 152.109375 108.398438 C 152.109375 107.949219 151.929688 107.773438 151.660156 107.773438 C 150.949219 107.773438 150.59375 108.484375 150.414063 108.753906 L 150.414063 111.160156 L 151.039063 111.160156 L 151.039063 111.25 L 149.078125 111.25 L 149.078125 111.160156 L 149.703125 111.160156 L 149.703125 107.949219 "/>
<path style=" stroke:none;fill-rule:evenodd;fill:rgb(13.699341%,12.199402%,12.5%);fill-opacity:1;" d="M 158.613281 110.089844 C 158.613281 110.714844 158.078125 111.339844 157.277344 111.339844 C 156.117188 111.339844 155.496094 110.625 155.496094 109.644531 C 155.496094 108.574219 156.296875 107.683594 157.277344 107.683594 C 157.902344 107.683594 158.523438 107.949219 158.523438 108.398438 C 158.523438 108.664063 158.257813 108.84375 158.078125 108.84375 C 157.8125 108.84375 157.722656 108.664063 157.722656 108.484375 C 157.722656 108.128906 157.902344 108.21875 157.902344 108.039063 C 157.902344 107.863281 157.542969 107.773438 157.277344 107.773438 C 156.476563 107.773438 156.296875 108.308594 156.296875 109.109375 L 156.296875 109.824219 C 156.296875 110.535156 156.296875 111.25 157.277344 111.25 C 158.078125 111.25 158.4375 110.625 158.523438 110.089844 L 158.613281 110.089844 "/>
<path style=" stroke:none;fill-rule:evenodd;fill:rgb(13.699341%,12.199402%,12.5%);fill-opacity:1;" d="M 160.84375 110.980469 C 160.84375 111.160156 160.664063 111.339844 160.394531 111.339844 C 160.21875 111.339844 160.039063 111.160156 160.039063 110.980469 C 160.039063 110.714844 160.21875 110.535156 160.394531 110.535156 C 160.664063 110.535156 160.84375 110.714844 160.84375 110.980469 "/>
<path style=" stroke:none;fill-rule:evenodd;fill:rgb(13.699341%,12.199402%,12.5%);fill-opacity:1;" d="M 23.503906 111.515625 L 23.503906 110.804688 L 26.890625 110.804688 L 26.890625 82.285156 L 23.503906 82.285156 C 21.8125 83.710938 20.117188 85.3125 18.515625 87.097656 C 9.246094 97.523438 6.75 110.445313 12.898438 115.972656 C 18.15625 120.605469 27.871094 118.558594 36.425781 111.515625 L 23.503906 111.515625 "/>
<path style=" stroke:none;fill-rule:evenodd;fill:rgb(0%,28.599548%,20.399475%);fill-opacity:1;" d="M 37.050781 81.570313 L 37.050781 82.285156 L 33.574219 82.285156 L 33.574219 110.804688 L 37.320313 110.804688 C 38.566406 109.644531 39.8125 108.398438 41.0625 107.058594 C 50.332031 96.632813 52.828125 83.710938 46.675781 78.097656 C 41.683594 73.730469 32.683594 75.421875 24.484375 81.570313 L 37.050781 81.570313 "/>
</g>
</svg>
